<?xml version="1.0" encoding="UTF-8" standalone="no"?>
<svg
   version="1.0"
   width="379.39557pt"
   height="279.50861pt"
   viewBox="0 0 379.39557 279.50861"
   preserveAspectRatio="xMidYMid"
   id="svg19"
   sodipodi:docname="logo.svg"
   inkscape:version="1.4.2 (f4327f4, 2025-05-13)"
   xmlns:inkscape="http://www.inkscape.org/namespaces/inkscape"
   xmlns:sodipodi="http://sodipodi.sourceforge.net/DTD/sodipodi-0.dtd"
   xmlns="http://www.w3.org/2000/svg"
   xmlns:svg="http://www.w3.org/2000/svg">
  <defs
     id="defs19" />
  <sodipodi:namedview
     id="namedview19"
     pagecolor="#ffffff"
     bordercolor="#000000"
     borderopacity="0.25"
     inkscape:showpageshadow="2"
     inkscape:pageopacity="0.0"
     inkscape:pagecheckerboard="0"
     inkscape:deskcolor="#d1d1d1"
     inkscape:document-units="pt"
     inkscape:zoom="0.80200195"
     inkscape:cx="161.47093"
     inkscape:cy="252.49315"
     inkscape:window-width="2560"
     inkscape:window-height="1334"
     inkscape:window-x="-11"
     inkscape:window-y="-11"
     inkscape:window-maximized="1"
     inkscape:current-layer="g19" />
  <g
     transform="matrix(0.1,0,0,-0.1,-337.1,799)"
     stroke="none"
     id="g19">
    <path
       d="m 3533,7695 v -295 h 790 791 l -40,-42 c -23,-24 -124,-149 -225,-278 -102,-129 -250,-318 -329,-419 -80,-101 -212,-270 -295,-376 -148,-190 -611,-779 -772,-982 l -82,-103 622,-2 c 1949,-6 2013,-5 2124,19 242,52 432,160 628,357 215,216 332,434 396,736 30,139 32,408 5,545 -61,312 -169,533 -381,778 -75,87 -242,223 -264,215 -5,-1 -77,-95 -159,-208 l -150,-205 99,-94 c 146,-137 223,-255 282,-433 40,-118 51,-191 50,-328 -1,-100 -6,-145 -27,-224 -74,-286 -252,-494 -498,-584 l -73,-27 -757,-3 c -417,-1 -758,0 -758,3 0,3 33,47 73,98 40,51 107,135 148,187 42,52 163,205 270,340 209,263 528,668 704,895 171,220 542,702 549,714 5,8 -375,11 -1356,11 H 3534 Z"
       id="path1" fill="#21A0A0"
      />
  </g>
</svg>
