<?xml version="1.0" encoding="UTF-8" standalone="no"?>
<svg
   version="1.0"
   width="1024.000000pt"
   height="1024.000000pt"
   viewBox="0 0 1024.000000 1024.000000"
   preserveAspectRatio="xMidYMid meet"
   id="svg19"
   sodipodi:docname="logo-text.svg"
   inkscape:version="1.4.2 (f4327f4, 2025-05-13)"
   xmlns:inkscape="http://www.inkscape.org/namespaces/inkscape"
   xmlns:sodipodi="http://sodipodi.sourceforge.net/DTD/sodipodi-0.dtd"
   xmlns="http://www.w3.org/2000/svg"
   xmlns:svg="http://www.w3.org/2000/svg">
  <defs
     id="defs19" />
  <sodipodi:namedview
     id="namedview19"
     pagecolor="#ffffff"
     bordercolor="#000000"
     borderopacity="0.25"
     inkscape:showpageshadow="2"
     inkscape:pageopacity="0.0"
     inkscape:pagecheckerboard="0"
     inkscape:deskcolor="#d1d1d1"
     inkscape:document-units="pt"
     inkscape:zoom="0.80200195"
     inkscape:cx="682.66667"
     inkscape:cy="682.66667"
     inkscape:window-width="2560"
     inkscape:window-height="1334"
     inkscape:window-x="-11"
     inkscape:window-y="-11"
     inkscape:window-maximized="1"
     inkscape:current-layer="g19" />
  <g
     transform="translate(0.000000,1024.000000) scale(0.100000,-0.100000)"
     fill="#000000"
     stroke="none"
     id="g19">
    <path
       d="M5663 4365 c-143 -31 -256 -121 -322 -257 -126 -258 -37 -568 199 -692 205 -108 451 -78 600 74 48 48 101 134 89 143 -2 2 -47 22 -99 44 l-95 41 -14 -27 c-38 -74 -120 -129 -205 -138 -223 -23 -379 230 -282 460 21 50 85 118 131 137 132 58 260 18 345 -106 l15 -22 98 37 c53 21 100 40 103 44 12 11 -50 108 -98 153 -114 106 -289 147 -465 109z"
       id="path2" />
    <path
       d="M6695 4366 c-91 -22 -163 -63 -229 -128 -105 -106 -153 -240 -143 -403 9 -145 53 -248 146 -341 90 -90 227 -144 365 -144 59 0 187 30 238 56 100 50 195 155 237 262 43 108 45 273 6 391 -36 109 -131 218 -236 272 -90 46 -272 62 -384 35z m260 -210 c94 -43 148 -121 163 -234 34 -249 -155 -427 -377 -355 -130 42 -211 179 -199 337 10 114 67 204 160 250 71 36 180 36 253 2z"
       id="path3" />
    <path
       d="M1170 4259 l0 -101 245 4 c135 2 245 1 245 -1 0 -2 -110 -141 -245 -308 l-245 -305 0 -89 0 -89 385 0 385 0 0 95 0 95 -250 0 -251 0 99 123 c54 67 167 209 250 315 l152 194 0 84 0 84 -385 0 -385 0 0 -101z"
       id="path4" />
    <path
       d="M2120 3865 l0 -495 105 0 105 0 2 208 3 207 210 0 210 0 3 -207 2 -208 105 0 105 0 0 485 c0 267 1 488 3 493 1 4 -46 8 -105 10 l-108 3 -2 -192 -3 -191 -210 0 -210 1 -3 190 -2 191 -105 0 -105 0 0 -495z"
       id="path5" />
    <path
       d="M3383 4068 c-62 -161 -146 -381 -187 -488 -42 -107 -76 -198 -76 -202 0 -5 51 -8 114 -8 l114 0 33 95 34 95 201 0 201 0 36 -92 35 -93 116 -3 c64 -1 116 1 116 6 0 5 -87 226 -193 493 l-194 484 -119 3 -120 3 -111 -293z m302 -138 c36 -95 64 -175 61 -177 -2 -2 -62 -2 -133 -1 l-129 3 48 135 c74 206 80 221 84 218 2 -2 33 -82 69 -178z"
       id="path6" />
    <path
       d="M4240 3865 l0 -495 110 0 110 0 2 316 3 316 230 -316 230 -316 103 0 102 0 0 495 0 495 -105 0 -105 0 0 -317 c-1 -285 -2 -316 -16 -298 -19 26 -103 140 -294 403 l-154 212 -108 0 -108 0 0 -495z"
       id="path7" />
    <path
       d="M7500 3865 l0 -496 103 3 102 3 2 175 2 175 74 3 74 3 104 -180 104 -180 118 -1 c64 0 117 2 117 5 0 2 -52 88 -116 191 -63 102 -114 186 -112 187 152 76 208 155 208 294 0 131 -70 238 -186 284 -56 22 -74 24 -326 27 l-268 3 0 -496z m511 282 c37 -25 52 -68 47 -127 -9 -96 -56 -120 -228 -120 l-120 0 0 136 0 136 138 -4 c111 -2 142 -6 163 -21z"
       id="path8" />
    <path
       d="M8460 3865 l0 -495 336 2 336 3 0 90 0 90 -230 3 -231 2 -3 111 c-2 73 1 113 8 116 6 2 104 3 217 1 l207 -3 0 88 0 87 -217 0 -218 0 2 102 2 103 233 3 233 2 -2 93 -1 92 -336 3 -336 2 0 -495z"
       id="path9" />
    <path
       d="M6038 2911 c-79 -26 -123 -87 -115 -160 7 -66 51 -103 164 -137 103 -31 113 -37 113 -75 0 -36 -32 -59 -82 -59 -53 0 -85 15 -102 48 -14 26 -18 28 -58 23 -53 -7 -60 -30 -26 -81 36 -54 97 -80 188 -80 89 0 134 19 168 70 20 29 23 44 20 94 -4 54 -8 63 -41 91 -24 21 -66 40 -125 58 -49 14 -95 33 -102 42 -18 22 -4 64 26 75 49 19 85 12 118 -23 27 -29 36 -33 74 -29 35 3 42 8 42 25 0 32 -41 85 -79 103 -40 19 -144 27 -183 15z"
       id="path10" />
    <path
       d="M2150 2650 l0 -260 55 0 55 0 0 79 c0 71 2 81 28 110 l28 32 69 -110 70 -110 68 -1 68 0 -87 128 c-47 70 -94 135 -102 145 -14 16 -13 20 14 50 17 17 61 69 98 115 l68 82 -64 0 -64 0 -94 -115 -95 -114 -3 114 -3 115 -54 0 -55 0 0 -260z"
       id="path11" />
    <path
       d="M2914 2863 c-10 -27 -53 -140 -96 -253 -43 -112 -78 -208 -78 -213 0 -4 26 -7 57 -5 l56 3 17 50 17 50 100 3 101 3 16 -41 c9 -22 16 -47 16 -55 0 -12 14 -15 60 -15 33 0 60 1 60 3 0 1 -27 74 -61 162 -33 88 -77 204 -97 257 l-37 98 -57 0 -56 0 -18 -47z m114 -185 l31 -88 -70 0 c-53 0 -70 3 -66 13 2 6 17 49 32 95 16 45 31 79 35 75 4 -5 21 -47 38 -95z"
       id="path12" />
    <path
       d="M3397 2903 c-4 -3 -7 -26 -7 -50 l0 -43 130 0 129 0 -129 -167 c-119 -154 -130 -171 -130 -210 l0 -43 200 0 200 0 0 50 0 50 -130 0 c-118 0 -150 7 -120 25 5 3 64 76 130 161 106 138 120 160 120 195 l0 39 -193 0 c-107 0 -197 -3 -200 -7z"
       id="path13" />
    <path
       d="M4152 2893 c-5 -10 -49 -124 -97 -253 -48 -129 -89 -238 -92 -242 -2 -5 23 -8 56 -8 l60 0 16 55 16 55 103 0 102 0 18 -55 17 -55 59 0 59 0 -28 78 c-16 42 -61 158 -99 257 l-71 180 -55 3 c-44 2 -57 0 -64 -15z m98 -205 c16 -48 30 -89 30 -92 0 -3 -31 -6 -69 -6 l-69 0 29 83 c16 45 32 88 34 96 8 20 11 14 45 -81z"
       id="path14" />
    <path
       d="M4650 2650 l0 -260 55 0 55 0 0 83 c1 71 4 86 24 111 l24 29 74 -111 73 -112 67 0 67 0 -100 144 c-54 79 -99 147 -99 151 0 4 35 48 78 99 42 50 83 99 91 109 12 16 9 17 -51 17 l-65 0 -89 -107 -89 -108 -3 108 -3 107 -54 0 -55 0 0 -260z"
       id="path15" />
    <path
       d="M5271 2650 l0 -260 55 0 54 0 0 110 0 110 110 0 110 0 0 -110 0 -110 55 0 55 0 0 260 0 260 -55 0 -55 0 0 -105 0 -106 -107 3 -108 3 -3 103 -3 102 -54 0 -54 0 0 -260z"
       id="path16" />
    <path
       d="M6470 2860 l0 -50 80 0 80 0 0 -210 0 -210 55 0 55 0 0 210 0 210 80 0 80 0 0 50 0 50 -215 0 -215 0 0 -50z"
       id="path17" />
    <path
       d="M7137 2788 c-25 -68 -66 -175 -90 -238 -69 -177 -69 -162 -1 -158 l57 3 17 50 17 50 103 0 103 0 17 -50 17 -50 56 -3 c31 -2 57 1 57 5 0 4 -43 122 -96 261 l-97 252 -57 0 -58 0 -45 -122z m135 -86 c15 -42 30 -85 33 -94 6 -16 0 -18 -65 -18 -65 0 -71 2 -65 18 3 9 18 52 33 94 15 43 29 78 32 78 3 0 17 -35 32 -78z"
       id="path18" />
    <path
       d="M7680 2650 l0 -260 53 0 52 0 -3 112 c-2 62 -2 142 0 177 l3 64 110 -176 110 -176 53 -1 52 0 0 260 0 260 -55 0 -55 0 0 -156 0 -157 -25 36 c-13 20 -58 91 -100 157 l-76 120 -60 0 -59 0 0 -260z"
       id="path19" />
  </g>
</svg>
